# xmcd CD database file
#
# Track frame offsets:
#	150
#	18582
#	51545
#	79265
#	106127
#	152650
#	188892
#	242912
#
# Disc length: 3651 seconds
#
# Revision: 1
# Processed by: cddbd v1.5.1PL0 Copyright (c) Steve Scherf et al.
# Submitted via: CDex 1.50beta10
#
DISCID=650e4108
DTITLE=Sheila Jordan - Believe in Jazz
DYEAR=2003
DGENRE=Jazz
TTITLE0=Comes Love (Nothing can be done)
TTITLE1=Buffalo Wings
TTITLE2=Bird Alone
TTITLE3=Where you at
TTITLE4=Little song/Black Bird/Real Time
TTITLE5=Everything happens to me
TTITLE6=The touch of your lips
TTITLE7=You must believe in Spring
EXTD=YEAR: 2003
EXTT0=
EXTT1=
EXTT2=
EXTT3=
EXTT4=
EXTT5=
EXTT6=
EXTT7=
PLAYORDER=
